<mxfile host="app.diagrams.net" agent="Mozilla/5.0 (X11; Linux x86_64) AppleWebKit/537.36 (KHTML, like Gecko) Chrome/131.0.0.0 Safari/537.36" version="25.0.3">
  <diagram name="Side-1" id="nN8M2TYEpf9TXSCZ7ov6">
    <mxGraphModel dx="1432" dy="1547" grid="1" gridSize="10" guides="1" tooltips="1" connect="1" arrows="1" fold="1" page="1" pageScale="1" pageWidth="827" pageHeight="1169" math="0" shadow="0">
      <root>
        <mxCell id="0" />
        <mxCell id="1" parent="0" />
        <mxCell id="RyBurUhnKJ1ASNkBhI7w-6" value="" style="ellipse;whiteSpace=wrap;html=1;aspect=fixed;fillColor=#b1ddf0;strokeColor=#10739e;" parent="1" vertex="1">
          <mxGeometry x="-530" y="-175.31" width="1208.12" height="1208.12" as="geometry" />
        </mxCell>
        <mxCell id="RyBurUhnKJ1ASNkBhI7w-5" value="" style="ellipse;whiteSpace=wrap;html=1;aspect=fixed;fillColor=#d5e8d4;strokeColor=#82b366;" parent="1" vertex="1">
          <mxGeometry x="-190" y="1.2800000000000011" width="859.93" height="859.93" as="geometry" />
        </mxCell>
        <mxCell id="RyBurUhnKJ1ASNkBhI7w-4" value="" style="ellipse;whiteSpace=wrap;html=1;aspect=fixed;fillColor=#ffe6cc;strokeColor=#d79b00;" parent="1" vertex="1">
          <mxGeometry x="42" y="126.55000000000001" width="604.39" height="604.39" as="geometry" />
        </mxCell>
        <mxCell id="RyBurUhnKJ1ASNkBhI7w-3" value="" style="ellipse;whiteSpace=wrap;html=1;aspect=fixed;fillColor=#fff2cc;strokeColor=#d6b656;" parent="1" vertex="1">
          <mxGeometry x="260" y="254.37" width="353.75" height="353.75" as="geometry" />
        </mxCell>
        <mxCell id="RyBurUhnKJ1ASNkBhI7w-7" value="Chirp.Core" style="shape=umlFrame;whiteSpace=wrap;html=1;pointerEvents=0;recursiveResize=0;container=1;collapsible=0;width=80;fillColor=none;height=20;" parent="1" vertex="1">
          <mxGeometry x="320" y="320" width="250" height="220" as="geometry" />
        </mxCell>
        <mxCell id="11" style="edgeStyle=orthogonalEdgeStyle;html=1;exitX=0;exitY=0.75;exitDx=0;exitDy=0;entryX=1;entryY=0.5;entryDx=0;entryDy=0;fontColor=default;fillColor=#fad9d5;strokeColor=#ae4132;endArrow=none;endFill=0;dashed=1;" parent="RyBurUhnKJ1ASNkBhI7w-7" source="RyBurUhnKJ1ASNkBhI7w-99" target="10" edge="1">
          <mxGeometry relative="1" as="geometry" />
        </mxCell>
        <mxCell id="RyBurUhnKJ1ASNkBhI7w-99" value="AuthorFollow" style="rounded=0;whiteSpace=wrap;html=1;fillColor=#fad7ac;strokeColor=#b46504;" parent="RyBurUhnKJ1ASNkBhI7w-7" vertex="1">
          <mxGeometry x="130.00000000000003" y="170" width="102.1" height="40" as="geometry" />
        </mxCell>
        <mxCell id="RyBurUhnKJ1ASNkBhI7w-101" value="CheepRevision" style="rounded=0;whiteSpace=wrap;html=1;fillColor=#fad7ac;strokeColor=#b46504;" parent="RyBurUhnKJ1ASNkBhI7w-7" vertex="1">
          <mxGeometry x="130.00000000000006" y="19.99999999999997" width="102.1" height="40" as="geometry" />
        </mxCell>
        <mxCell id="20" style="edgeStyle=orthogonalEdgeStyle;html=1;exitX=0;exitY=0.5;exitDx=0;exitDy=0;fontColor=default;endArrow=none;endFill=0;dashed=1;fillColor=#fad9d5;strokeColor=#ae4132;" parent="RyBurUhnKJ1ASNkBhI7w-7" source="RyBurUhnKJ1ASNkBhI7w-100" target="19" edge="1">
          <mxGeometry relative="1" as="geometry" />
        </mxCell>
        <mxCell id="RyBurUhnKJ1ASNkBhI7w-100" value="CheepLike" style="rounded=0;whiteSpace=wrap;html=1;fillColor=#fad7ac;strokeColor=#b46504;" parent="RyBurUhnKJ1ASNkBhI7w-7" vertex="1">
          <mxGeometry x="130" y="95" width="102.1" height="40" as="geometry" />
        </mxCell>
        <mxCell id="RyBurUhnKJ1ASNkBhI7w-103" style="edgeStyle=orthogonalEdgeStyle;rounded=0;orthogonalLoop=1;jettySize=auto;html=1;fillColor=#f8cecc;strokeColor=#b85450;" parent="RyBurUhnKJ1ASNkBhI7w-7" edge="1">
          <mxGeometry relative="1" as="geometry">
            <mxPoint x="40" y="149" as="sourcePoint" />
            <mxPoint x="40.04000000000019" y="79" as="targetPoint" />
          </mxGeometry>
        </mxCell>
        <mxCell id="RyBurUhnKJ1ASNkBhI7w-104" value="0..N" style="edgeLabel;html=1;align=center;verticalAlign=middle;resizable=0;points=[];labelBackgroundColor=none;" parent="RyBurUhnKJ1ASNkBhI7w-103" vertex="1" connectable="0">
          <mxGeometry x="0.384" relative="1" as="geometry">
            <mxPoint x="14" y="-6" as="offset" />
          </mxGeometry>
        </mxCell>
        <mxCell id="10" value="" style="rhombus;whiteSpace=wrap;html=1;labelBackgroundColor=none;fillColor=#fad7ac;strokeColor=#b46504;" parent="RyBurUhnKJ1ASNkBhI7w-7" vertex="1">
          <mxGeometry x="50" y="190" width="20" height="20" as="geometry" />
        </mxCell>
        <mxCell id="19" value="" style="rhombus;whiteSpace=wrap;html=1;labelBackgroundColor=none;fillColor=#fad7ac;strokeColor=#b46504;" parent="RyBurUhnKJ1ASNkBhI7w-7" vertex="1">
          <mxGeometry x="84" y="105" width="20" height="20" as="geometry" />
        </mxCell>
        <mxCell id="RyBurUhnKJ1ASNkBhI7w-22" value="Chirp.Infrastructure" style="shape=umlFrame;whiteSpace=wrap;html=1;pointerEvents=0;recursiveResize=0;container=1;collapsible=0;width=120;fillColor=none;height=29;" parent="1" vertex="1">
          <mxGeometry x="-160" y="260" width="420" height="280" as="geometry" />
        </mxCell>
        <mxCell id="RyBurUhnKJ1ASNkBhI7w-135" value="Chirp.Repositories" style="shape=umlFrame;whiteSpace=wrap;html=1;pointerEvents=0;recursiveResize=0;container=1;collapsible=0;width=120;fillColor=none;height=29;" parent="RyBurUhnKJ1ASNkBhI7w-22" vertex="1">
          <mxGeometry x="220" y="94" width="190" height="160" as="geometry" />
        </mxCell>
        <mxCell id="RyBurUhnKJ1ASNkBhI7w-136" value="&lt;font style=&quot;font-size: 10px;&quot;&gt;ICheepRepository&lt;/font&gt;" style="rounded=0;whiteSpace=wrap;html=1;fillColor=#E6D0DE;strokeColor=#56517e;rotation=0;" parent="RyBurUhnKJ1ASNkBhI7w-135" vertex="1">
          <mxGeometry x="5" y="40" width="90" height="40" as="geometry" />
        </mxCell>
        <mxCell id="RyBurUhnKJ1ASNkBhI7w-137" value="&lt;font style=&quot;font-size: 10px;&quot;&gt;IAuthorRepository&lt;/font&gt;" style="rounded=0;whiteSpace=wrap;html=1;fillColor=#E6D0DE;strokeColor=#56517e;rotation=0;" parent="RyBurUhnKJ1ASNkBhI7w-135" vertex="1">
          <mxGeometry x="97.99" y="40" width="84.02" height="40" as="geometry" />
        </mxCell>
        <mxCell id="RyBurUhnKJ1ASNkBhI7w-140" value="&lt;font style=&quot;font-size: 10px;&quot;&gt;CheepRepository&lt;/font&gt;" style="rounded=0;whiteSpace=wrap;html=1;fillColor=#fad7ac;strokeColor=#b46504;" parent="RyBurUhnKJ1ASNkBhI7w-135" vertex="1">
          <mxGeometry x="10" y="110" width="80" height="40" as="geometry" />
        </mxCell>
        <mxCell id="RyBurUhnKJ1ASNkBhI7w-142" style="edgeStyle=orthogonalEdgeStyle;rounded=0;orthogonalLoop=1;jettySize=auto;html=1;exitX=0.5;exitY=0;exitDx=0;exitDy=0;endArrow=block;endFill=0;fillColor=#f8cecc;strokeColor=#b85450;" parent="RyBurUhnKJ1ASNkBhI7w-135" source="RyBurUhnKJ1ASNkBhI7w-140" target="RyBurUhnKJ1ASNkBhI7w-136" edge="1">
          <mxGeometry relative="1" as="geometry" />
        </mxCell>
        <mxCell id="RyBurUhnKJ1ASNkBhI7w-141" value="&lt;font style=&quot;font-size: 10px;&quot;&gt;AuthorRepository&lt;/font&gt;" style="rounded=0;whiteSpace=wrap;html=1;fillColor=#fad7ac;strokeColor=#b46504;" parent="RyBurUhnKJ1ASNkBhI7w-135" vertex="1">
          <mxGeometry x="101.5" y="110" width="77" height="40" as="geometry" />
        </mxCell>
        <mxCell id="RyBurUhnKJ1ASNkBhI7w-143" style="edgeStyle=orthogonalEdgeStyle;rounded=0;orthogonalLoop=1;jettySize=auto;html=1;exitX=0.5;exitY=0;exitDx=0;exitDy=0;endArrow=block;endFill=0;fillColor=#f8cecc;strokeColor=#b85450;" parent="RyBurUhnKJ1ASNkBhI7w-135" source="RyBurUhnKJ1ASNkBhI7w-141" target="RyBurUhnKJ1ASNkBhI7w-137" edge="1">
          <mxGeometry relative="1" as="geometry" />
        </mxCell>
        <mxCell id="RyBurUhnKJ1ASNkBhI7w-134" value="Chirp.Services" style="shape=umlFrame;whiteSpace=wrap;html=1;pointerEvents=0;recursiveResize=0;container=1;collapsible=0;width=120;fillColor=none;height=29;" parent="RyBurUhnKJ1ASNkBhI7w-22" vertex="1">
          <mxGeometry x="6" y="94" width="184" height="160" as="geometry" />
        </mxCell>
        <mxCell id="RyBurUhnKJ1ASNkBhI7w-146" value="" style="endArrow=classic;html=1;rounded=0;entryX=-0.003;entryY=0.491;entryDx=0;entryDy=0;entryPerimeter=0;dashed=1;fillColor=#f8cecc;strokeColor=#b85450;" parent="RyBurUhnKJ1ASNkBhI7w-22" target="RyBurUhnKJ1ASNkBhI7w-135" edge="1">
          <mxGeometry width="50" height="50" relative="1" as="geometry">
            <mxPoint x="190" y="173" as="sourcePoint" />
            <mxPoint x="481" y="170" as="targetPoint" />
          </mxGeometry>
        </mxCell>
        <mxCell id="RyBurUhnKJ1ASNkBhI7w-160" value="&lt;font style=&quot;font-size: 11px;&quot;&gt;CheeperSignInManager&lt;/font&gt;" style="rounded=0;whiteSpace=wrap;html=1;fillColor=#fad7ac;strokeColor=#b46504;" parent="RyBurUhnKJ1ASNkBhI7w-22" vertex="1">
          <mxGeometry x="140" y="40" width="130" height="40" as="geometry" />
        </mxCell>
        <mxCell id="RyBurUhnKJ1ASNkBhI7w-159" value="CheepDbContext" style="rounded=0;whiteSpace=wrap;html=1;fillColor=#fad7ac;strokeColor=#b46504;" parent="RyBurUhnKJ1ASNkBhI7w-22" vertex="1">
          <mxGeometry x="280" y="40" width="102.1" height="40" as="geometry" />
        </mxCell>
        <mxCell id="RyBurUhnKJ1ASNkBhI7w-23" value="Chirp.Web" style="shape=umlFrame;whiteSpace=wrap;html=1;pointerEvents=0;recursiveResize=0;container=1;collapsible=0;width=90;fillColor=none;height=21;" parent="1" vertex="1">
          <mxGeometry x="-490" y="220" width="290" height="412" as="geometry" />
        </mxCell>
        <mxCell id="RyBurUhnKJ1ASNkBhI7w-163" value="Chirp.Web.wwwroot" style="shape=umlFrame;whiteSpace=wrap;html=1;pointerEvents=0;recursiveResize=0;container=1;collapsible=0;width=143;fillColor=none;height=18;" parent="RyBurUhnKJ1ASNkBhI7w-23" vertex="1">
          <mxGeometry x="7" y="340" width="273" height="66" as="geometry" />
        </mxCell>
        <mxCell id="RyBurUhnKJ1ASNkBhI7w-166" value="Chirp.Pages" style="shape=umlFrame;whiteSpace=wrap;html=1;pointerEvents=0;recursiveResize=0;container=1;collapsible=0;width=100;fillColor=none;height=20;" parent="RyBurUhnKJ1ASNkBhI7w-23" vertex="1">
          <mxGeometry x="7" y="155" width="273" height="170" as="geometry" />
        </mxCell>
        <mxCell id="RyBurUhnKJ1ASNkBhI7w-175" value="&lt;font style=&quot;font-size: 11px;&quot;&gt;UserTimeline&lt;/font&gt;" style="rounded=0;whiteSpace=wrap;html=1;fillColor=#fad7ac;strokeColor=default;gradientDirection=south;gradientColor=#66FFFF;" parent="RyBurUhnKJ1ASNkBhI7w-166" vertex="1">
          <mxGeometry x="130" y="50" width="130" height="30" as="geometry" />
        </mxCell>
        <mxCell id="RyBurUhnKJ1ASNkBhI7w-177" value="Search" style="rounded=0;whiteSpace=wrap;html=1;fillColor=#fad7ac;strokeColor=default;gradientDirection=south;gradientColor=#66FFFF;" parent="RyBurUhnKJ1ASNkBhI7w-166" vertex="1">
          <mxGeometry x="130" y="130" width="130" height="30" as="geometry" />
        </mxCell>
        <mxCell id="RyBurUhnKJ1ASNkBhI7w-179" value="Likes" style="rounded=0;whiteSpace=wrap;html=1;fillColor=#fad7ac;strokeColor=default;gradientDirection=south;gradientColor=#66FFFF;" parent="RyBurUhnKJ1ASNkBhI7w-166" vertex="1">
          <mxGeometry x="130" y="91" width="53" height="30" as="geometry" />
        </mxCell>
        <mxCell id="RyBurUhnKJ1ASNkBhI7w-180" value="Public" style="rounded=0;whiteSpace=wrap;html=1;fillColor=#fad7ac;strokeColor=default;gradientDirection=south;gradientColor=#66FFFF;" parent="RyBurUhnKJ1ASNkBhI7w-166" vertex="1">
          <mxGeometry x="130" y="8" width="130" height="30" as="geometry" />
        </mxCell>
        <mxCell id="RyBurUhnKJ1ASNkBhI7w-199" style="edgeStyle=orthogonalEdgeStyle;rounded=0;orthogonalLoop=1;jettySize=auto;html=1;exitX=0;exitY=0.5;exitDx=0;exitDy=0;entryX=1;entryY=0.5;entryDx=0;entryDy=0;endArrow=none;endFill=0;fillColor=#f8cecc;strokeColor=#b85450;" parent="RyBurUhnKJ1ASNkBhI7w-166" source="RyBurUhnKJ1ASNkBhI7w-178" target="RyBurUhnKJ1ASNkBhI7w-179" edge="1">
          <mxGeometry relative="1" as="geometry" />
        </mxCell>
        <mxCell id="RyBurUhnKJ1ASNkBhI7w-178" value="&lt;font style=&quot;font-size: 11.5px;&quot;&gt;Comments&lt;/font&gt;" style="rounded=0;whiteSpace=wrap;html=1;fillColor=#fad7ac;strokeColor=default;gradientDirection=south;gradientColor=#66FFFF;" parent="RyBurUhnKJ1ASNkBhI7w-166" vertex="1">
          <mxGeometry x="200" y="90" width="60" height="30" as="geometry" />
        </mxCell>
        <mxCell id="RyBurUhnKJ1ASNkBhI7w-167" value="Chirp.Web.Interfaces" style="shape=umlFrame;whiteSpace=wrap;html=1;pointerEvents=0;recursiveResize=0;container=1;collapsible=0;width=143;fillColor=none;height=20;" parent="RyBurUhnKJ1ASNkBhI7w-23" vertex="1">
          <mxGeometry x="130" y="55" width="150" height="80" as="geometry" />
        </mxCell>
        <mxCell id="RyBurUhnKJ1ASNkBhI7w-171" value="&lt;font style=&quot;font-size: 10px;&quot;&gt;ICheepModel&lt;/font&gt;" style="rounded=0;whiteSpace=wrap;html=1;fillColor=#E6D0DE;strokeColor=#56517e;rotation=0;" parent="RyBurUhnKJ1ASNkBhI7w-167" vertex="1">
          <mxGeometry x="74.02" y="34" width="70.56" height="28" as="geometry" />
        </mxCell>
        <mxCell id="RyBurUhnKJ1ASNkBhI7w-170" value="&lt;font&gt;IUserPage&lt;/font&gt;" style="rounded=0;whiteSpace=wrap;html=1;fillColor=#E6D0DE;strokeColor=#56517e;rotation=0;" parent="RyBurUhnKJ1ASNkBhI7w-167" vertex="1">
          <mxGeometry x="5" y="34" width="64.02" height="28" as="geometry" />
        </mxCell>
        <mxCell id="RyBurUhnKJ1ASNkBhI7w-168" value="&lt;font style=&quot;font-size: 10px;&quot;&gt;Chirp.Web.Endpoint&lt;/font&gt;" style="shape=umlFrame;whiteSpace=wrap;html=1;pointerEvents=0;recursiveResize=0;container=1;collapsible=0;width=113;fillColor=none;height=15;" parent="RyBurUhnKJ1ASNkBhI7w-23" vertex="1">
          <mxGeometry x="7" y="55" width="113" height="80" as="geometry" />
        </mxCell>
        <mxCell id="RyBurUhnKJ1ASNkBhI7w-181" style="edgeStyle=orthogonalEdgeStyle;rounded=0;orthogonalLoop=1;jettySize=auto;html=1;entryX=0.421;entryY=1.005;entryDx=0;entryDy=0;entryPerimeter=0;fillColor=#f8cecc;strokeColor=#b85450;endArrow=block;endFill=0;exitX=0.711;exitY=0.004;exitDx=0;exitDy=0;exitPerimeter=0;" parent="RyBurUhnKJ1ASNkBhI7w-23" source="RyBurUhnKJ1ASNkBhI7w-166" edge="1">
          <mxGeometry relative="1" as="geometry">
            <mxPoint x="201" y="157" as="sourcePoint" />
            <mxPoint x="201.14999999999986" y="134.39999999999986" as="targetPoint" />
          </mxGeometry>
        </mxCell>
        <mxCell id="RKfs2ECPPXJ6RIF6PNYo-40" style="edgeStyle=orthogonalEdgeStyle;rounded=0;orthogonalLoop=1;jettySize=auto;html=1;entryX=0.499;entryY=0.996;entryDx=0;entryDy=0;entryPerimeter=0;endSize=4;fillColor=#f8cecc;strokeColor=#b85450;dashed=1;" parent="RyBurUhnKJ1ASNkBhI7w-23" source="RyBurUhnKJ1ASNkBhI7w-163" target="RyBurUhnKJ1ASNkBhI7w-166" edge="1">
          <mxGeometry relative="1" as="geometry">
            <Array as="points">
              <mxPoint x="140" y="340" />
              <mxPoint x="140" y="340" />
            </Array>
          </mxGeometry>
        </mxCell>
        <mxCell id="RyBurUhnKJ1ASNkBhI7w-16" value="Chirp.Web.Tests" style="shape=umlFrame;whiteSpace=wrap;html=1;pointerEvents=0;recursiveResize=0;container=1;collapsible=0;width=130;fillColor=none;height=20;" parent="1" vertex="1">
          <mxGeometry x="-385.47" y="660" width="270" height="160" as="geometry" />
        </mxCell>
        <mxCell id="RKfs2ECPPXJ6RIF6PNYo-20" value="&lt;font style=&quot;font-size: 9px;&quot;&gt;WebEndpointTests&lt;/font&gt;" style="rounded=0;whiteSpace=wrap;html=1;fillColor=#fad7ac;strokeColor=#b46504;" parent="RyBurUhnKJ1ASNkBhI7w-16" vertex="1">
          <mxGeometry x="170" y="43" width="85" height="27" as="geometry" />
        </mxCell>
        <mxCell id="RKfs2ECPPXJ6RIF6PNYo-22" value="&lt;font style=&quot;font-size: 10px;&quot;&gt;SearchIntegrationTest&lt;/font&gt;" style="rounded=0;whiteSpace=wrap;html=1;fillColor=#fad7ac;strokeColor=#b46504;" parent="RyBurUhnKJ1ASNkBhI7w-16" vertex="1">
          <mxGeometry x="124" y="123" width="130" height="30" as="geometry" />
        </mxCell>
        <mxCell id="RKfs2ECPPXJ6RIF6PNYo-29" style="edgeStyle=orthogonalEdgeStyle;rounded=0;orthogonalLoop=1;jettySize=auto;html=1;exitX=0.25;exitY=0;exitDx=0;exitDy=0;fillColor=#f8cecc;strokeColor=#b85450;endArrow=classic;endFill=1;" parent="RyBurUhnKJ1ASNkBhI7w-16" source="RKfs2ECPPXJ6RIF6PNYo-15" target="RKfs2ECPPXJ6RIF6PNYo-12" edge="1">
          <mxGeometry relative="1" as="geometry">
            <Array as="points">
              <mxPoint x="80" y="70" />
              <mxPoint x="80" y="70" />
            </Array>
          </mxGeometry>
        </mxCell>
        <mxCell id="RKfs2ECPPXJ6RIF6PNYo-15" value="&lt;font style=&quot;font-size: 9px;&quot;&gt;CustomWebApplicationFactory&lt;/font&gt;" style="rounded=0;whiteSpace=wrap;html=1;fillColor=#fad7ac;strokeColor=#b46504;" parent="RyBurUhnKJ1ASNkBhI7w-16" vertex="1">
          <mxGeometry x="13" y="79.06" width="242" height="30.94" as="geometry" />
        </mxCell>
        <mxCell id="RKfs2ECPPXJ6RIF6PNYo-12" value="&lt;font style=&quot;font-size: 9px;&quot;&gt;TestWebDbInitilizer&lt;/font&gt;" style="rounded=0;whiteSpace=wrap;html=1;fillColor=#fad7ac;strokeColor=#b46504;" parent="RyBurUhnKJ1ASNkBhI7w-16" vertex="1">
          <mxGeometry x="13" y="30" width="136.53" height="30" as="geometry" />
        </mxCell>
        <mxCell id="RKfs2ECPPXJ6RIF6PNYo-27" style="edgeStyle=orthogonalEdgeStyle;rounded=0;orthogonalLoop=1;jettySize=auto;html=1;exitX=1;exitY=0.5;exitDx=0;exitDy=0;endArrow=none;endFill=0;fillColor=#f8cecc;strokeColor=#b85450;" parent="RyBurUhnKJ1ASNkBhI7w-16" source="RKfs2ECPPXJ6RIF6PNYo-21" target="RKfs2ECPPXJ6RIF6PNYo-22" edge="1">
          <mxGeometry relative="1" as="geometry" />
        </mxCell>
        <mxCell id="RKfs2ECPPXJ6RIF6PNYo-21" value="&lt;font style=&quot;font-size: 9px;&quot;&gt;PageSetupTests&lt;/font&gt;" style="rounded=0;whiteSpace=wrap;html=1;fillColor=#fad7ac;strokeColor=#b46504;" parent="RyBurUhnKJ1ASNkBhI7w-16" vertex="1">
          <mxGeometry x="13" y="123" width="85.47" height="30" as="geometry" />
        </mxCell>
        <mxCell id="RKfs2ECPPXJ6RIF6PNYo-25" style="edgeStyle=orthogonalEdgeStyle;rounded=0;orthogonalLoop=1;jettySize=auto;html=1;exitX=0;exitY=0.5;exitDx=0;exitDy=0;entryX=0.401;entryY=1.009;entryDx=0;entryDy=0;entryPerimeter=0;fillColor=#f8cecc;strokeColor=#b85450;endArrow=block;endFill=0;" parent="RyBurUhnKJ1ASNkBhI7w-16" source="RKfs2ECPPXJ6RIF6PNYo-22" target="RKfs2ECPPXJ6RIF6PNYo-15" edge="1">
          <mxGeometry relative="1" as="geometry" />
        </mxCell>
        <mxCell id="RyBurUhnKJ1ASNkBhI7w-20" value="&lt;font style=&quot;font-size: 11px;&quot;&gt;Chirp.Infrastructure.Tests&lt;/font&gt;" style="shape=umlFrame;whiteSpace=wrap;html=1;pointerEvents=0;recursiveResize=0;container=1;collapsible=0;width=130;fillColor=none;height=30;" parent="1" vertex="1">
          <mxGeometry x="-60" y="570" width="370" height="170" as="geometry" />
        </mxCell>
        <mxCell id="RKfs2ECPPXJ6RIF6PNYo-3" value="&lt;font style=&quot;font-size: 10px;&quot;&gt;CheepRepositoryTests&lt;/font&gt;" style="rounded=0;whiteSpace=wrap;html=1;fillColor=#fad7ac;strokeColor=#b46504;" parent="RyBurUhnKJ1ASNkBhI7w-20" vertex="1">
          <mxGeometry x="40" y="113" width="104.2" height="40" as="geometry" />
        </mxCell>
        <mxCell id="RKfs2ECPPXJ6RIF6PNYo-9" value="" style="endArrow=none;html=1;rounded=0;exitX=0.5;exitY=0;exitDx=0;exitDy=0;edgeStyle=orthogonalEdgeStyle;fillColor=#f8cecc;strokeColor=#b85450;" parent="RyBurUhnKJ1ASNkBhI7w-20" source="RKfs2ECPPXJ6RIF6PNYo-3" edge="1">
          <mxGeometry width="50" height="50" relative="1" as="geometry">
            <mxPoint x="90" y="140" as="sourcePoint" />
            <mxPoint x="210" y="100" as="targetPoint" />
            <Array as="points">
              <mxPoint x="92" y="100" />
              <mxPoint x="180" y="100" />
            </Array>
          </mxGeometry>
        </mxCell>
        <mxCell id="RyBurUhnKJ1ASNkBhI7w-21" value="Chirp.Web.Playwright" style="shape=umlFrame;whiteSpace=wrap;html=1;pointerEvents=0;recursiveResize=0;container=1;collapsible=0;width=126;fillColor=none;height=28;strokeColor=default;" parent="1" vertex="1">
          <mxGeometry x="-200" y="860" width="220" height="85.47" as="geometry" />
        </mxCell>
        <mxCell id="RKfs2ECPPXJ6RIF6PNYo-30" value="&lt;font style=&quot;font-size: 9px;&quot;&gt;TestHelpers&lt;/font&gt;" style="rounded=0;whiteSpace=wrap;html=1;fillColor=#fad7ac;strokeColor=#b46504;" parent="RyBurUhnKJ1ASNkBhI7w-21" vertex="1">
          <mxGeometry x="120" y="37" width="80" height="30.94" as="geometry" />
        </mxCell>
        <mxCell id="RyBurUhnKJ1ASNkBhI7w-95" value="Misc. Files" style="rounded=0;whiteSpace=wrap;html=1;fillColor=#EEEEEE;strokeColor=default;" parent="1" vertex="1">
          <mxGeometry x="-520" y="992.81" width="102.1" height="40" as="geometry" />
        </mxCell>
        <mxCell id="RyBurUhnKJ1ASNkBhI7w-96" value="Interface" style="rounded=0;whiteSpace=wrap;html=1;fillColor=#E6D0DE;strokeColor=#56517e;" parent="1" vertex="1">
          <mxGeometry x="-520" y="849" width="102.1" height="40" as="geometry" />
        </mxCell>
        <mxCell id="RyBurUhnKJ1ASNkBhI7w-102" style="edgeStyle=orthogonalEdgeStyle;rounded=0;orthogonalLoop=1;jettySize=auto;html=1;exitX=0.5;exitY=1;exitDx=0;exitDy=0;fillColor=#f8cecc;strokeColor=#b85450;" parent="1" source="RyBurUhnKJ1ASNkBhI7w-97" target="RyBurUhnKJ1ASNkBhI7w-98" edge="1">
          <mxGeometry relative="1" as="geometry">
            <Array as="points">
              <mxPoint x="360" y="400" />
            </Array>
          </mxGeometry>
        </mxCell>
        <mxCell id="RyBurUhnKJ1ASNkBhI7w-106" value="1..1" style="edgeLabel;html=1;align=center;verticalAlign=middle;resizable=0;points=[];labelBackgroundColor=none;" parent="RyBurUhnKJ1ASNkBhI7w-102" vertex="1" connectable="0">
          <mxGeometry x="0.4425" y="2" relative="1" as="geometry">
            <mxPoint x="11" y="9" as="offset" />
          </mxGeometry>
        </mxCell>
        <mxCell id="RyBurUhnKJ1ASNkBhI7w-119" style="edgeStyle=orthogonalEdgeStyle;rounded=0;orthogonalLoop=1;jettySize=auto;html=1;exitX=0.879;exitY=0.015;exitDx=0;exitDy=0;entryX=0;entryY=0.25;entryDx=0;entryDy=0;fillColor=#f8cecc;strokeColor=#b85450;exitPerimeter=0;" parent="1" source="RyBurUhnKJ1ASNkBhI7w-97" target="RyBurUhnKJ1ASNkBhI7w-101" edge="1">
          <mxGeometry relative="1" as="geometry">
            <Array as="points">
              <mxPoint x="420" y="350" />
            </Array>
          </mxGeometry>
        </mxCell>
        <mxCell id="RyBurUhnKJ1ASNkBhI7w-121" value="1..N" style="edgeLabel;html=1;align=center;verticalAlign=middle;resizable=0;points=[];labelBackgroundColor=none;" parent="RyBurUhnKJ1ASNkBhI7w-119" vertex="1" connectable="0">
          <mxGeometry x="0.3611" y="-1" relative="1" as="geometry">
            <mxPoint x="-4" y="-9" as="offset" />
          </mxGeometry>
        </mxCell>
        <mxCell id="2" value="1..1" style="edgeLabel;html=1;align=center;verticalAlign=middle;resizable=0;points=[];fontColor=default;labelBackgroundColor=none;" parent="RyBurUhnKJ1ASNkBhI7w-119" vertex="1" connectable="0">
          <mxGeometry x="-0.8378" relative="1" as="geometry">
            <mxPoint x="15" y="-4" as="offset" />
          </mxGeometry>
        </mxCell>
        <mxCell id="RyBurUhnKJ1ASNkBhI7w-97" value="Cheep" style="rounded=0;whiteSpace=wrap;html=1;fillColor=#fad7ac;strokeColor=#b46504;" parent="1" vertex="1">
          <mxGeometry x="330" y="370" width="102.1" height="30" as="geometry" />
        </mxCell>
        <mxCell id="RyBurUhnKJ1ASNkBhI7w-98" value="Author" style="rounded=0;whiteSpace=wrap;html=1;fillColor=#fad7ac;strokeColor=#b46504;" parent="1" vertex="1">
          <mxGeometry x="330" y="470" width="102.1" height="30" as="geometry" />
        </mxCell>
        <mxCell id="RyBurUhnKJ1ASNkBhI7w-145" value="" style="endArrow=classic;html=1;rounded=0;exitX=0.995;exitY=0.46;exitDx=0;exitDy=0;exitPerimeter=0;dashed=1;fillColor=#f8cecc;strokeColor=#b85450;" parent="1" source="RyBurUhnKJ1ASNkBhI7w-135" edge="1">
          <mxGeometry width="50" height="50" relative="1" as="geometry">
            <mxPoint x="260" y="470" as="sourcePoint" />
            <mxPoint x="321" y="428" as="targetPoint" />
          </mxGeometry>
        </mxCell>
        <mxCell id="RyBurUhnKJ1ASNkBhI7w-153" value="&lt;font style=&quot;font-size: 11px;&quot;&gt;ICheepService&lt;/font&gt;" style="rounded=0;whiteSpace=wrap;html=1;fillColor=#E6D0DE;strokeColor=#56517e;rotation=0;" parent="1" vertex="1">
          <mxGeometry x="-145" y="392" width="80" height="40" as="geometry" />
        </mxCell>
        <mxCell id="RyBurUhnKJ1ASNkBhI7w-154" value="&lt;font style=&quot;font-size: 11px;&quot;&gt;IAuthorService&lt;/font&gt;" style="rounded=0;whiteSpace=wrap;html=1;fillColor=#E6D0DE;strokeColor=#56517e;rotation=0;" parent="1" vertex="1">
          <mxGeometry x="-60.00999999999999" y="392" width="84.02" height="40" as="geometry" />
        </mxCell>
        <mxCell id="RyBurUhnKJ1ASNkBhI7w-155" value="&lt;font style=&quot;font-size: 11px;&quot;&gt;CheepService&lt;/font&gt;" style="rounded=0;whiteSpace=wrap;html=1;fillColor=#fad7ac;strokeColor=#b46504;" parent="1" vertex="1">
          <mxGeometry x="-145" y="462" width="80" height="40" as="geometry" />
        </mxCell>
        <mxCell id="RyBurUhnKJ1ASNkBhI7w-156" style="edgeStyle=orthogonalEdgeStyle;rounded=0;orthogonalLoop=1;jettySize=auto;html=1;exitX=0.5;exitY=0;exitDx=0;exitDy=0;endArrow=block;endFill=0;fillColor=#f8cecc;strokeColor=#b85450;" parent="1" source="RyBurUhnKJ1ASNkBhI7w-155" target="RyBurUhnKJ1ASNkBhI7w-153" edge="1">
          <mxGeometry relative="1" as="geometry" />
        </mxCell>
        <mxCell id="RyBurUhnKJ1ASNkBhI7w-157" value="&lt;font style=&quot;font-size: 11px;&quot;&gt;AuthorService&lt;/font&gt;" style="rounded=0;whiteSpace=wrap;html=1;fillColor=#fad7ac;strokeColor=#b46504;" parent="1" vertex="1">
          <mxGeometry x="-56.5" y="462" width="77" height="40" as="geometry" />
        </mxCell>
        <mxCell id="RyBurUhnKJ1ASNkBhI7w-158" style="edgeStyle=orthogonalEdgeStyle;rounded=0;orthogonalLoop=1;jettySize=auto;html=1;exitX=0.5;exitY=0;exitDx=0;exitDy=0;endArrow=block;endFill=0;fillColor=#f8cecc;strokeColor=#b85450;" parent="1" source="RyBurUhnKJ1ASNkBhI7w-157" target="RyBurUhnKJ1ASNkBhI7w-154" edge="1">
          <mxGeometry relative="1" as="geometry" />
        </mxCell>
        <mxCell id="RyBurUhnKJ1ASNkBhI7w-161" value="DbInitializer" style="rounded=0;whiteSpace=wrap;html=1;fillColor=#fad7ac;strokeColor=#b46504;" parent="1" vertex="1">
          <mxGeometry x="-130" y="300.38" width="102.1" height="40" as="geometry" />
        </mxCell>
        <mxCell id="RyBurUhnKJ1ASNkBhI7w-162" value="Program" style="rounded=0;whiteSpace=wrap;html=1;fillColor=#fad7ac;strokeColor=#b46504;" parent="1" vertex="1">
          <mxGeometry x="-378.95" y="230" width="101.05" height="39.62" as="geometry" />
        </mxCell>
        <mxCell id="RyBurUhnKJ1ASNkBhI7w-164" value="" style="endArrow=classic;html=1;rounded=0;entryX=0.005;entryY=0.614;entryDx=0;entryDy=0;entryPerimeter=0;dashed=1;fillColor=#f8cecc;strokeColor=#b85450;" parent="1" target="RyBurUhnKJ1ASNkBhI7w-22" edge="1">
          <mxGeometry width="50" height="50" relative="1" as="geometry">
            <mxPoint x="-200" y="432" as="sourcePoint" />
            <mxPoint x="-171" y="432" as="targetPoint" />
          </mxGeometry>
        </mxCell>
        <mxCell id="RyBurUhnKJ1ASNkBhI7w-169" value="CheepEndpoints" style="rounded=0;whiteSpace=wrap;html=1;fillColor=#fad7ac;strokeColor=#b46504;" parent="1" vertex="1">
          <mxGeometry x="-472.95" y="300.76" width="94" height="39.62" as="geometry" />
        </mxCell>
        <mxCell id="RyBurUhnKJ1ASNkBhI7w-182" value="&lt;span style=&quot;font-size: 9px;&quot;&gt;_SendCheepPartial&lt;/span&gt;" style="rounded=0;whiteSpace=wrap;html=1;fillColor=#66FFFF;strokeColor=default;gradientDirection=south;gradientColor=#66FFFF;" parent="1" vertex="1">
          <mxGeometry x="-472.95" y="412" width="82.95" height="20" as="geometry" />
        </mxCell>
        <mxCell id="RyBurUhnKJ1ASNkBhI7w-183" value="&lt;font style=&quot;font-size: 10px;&quot;&gt;_AuthorPartial&lt;/font&gt;" style="rounded=0;whiteSpace=wrap;html=1;fillColor=#66FFFF;strokeColor=default;gradientDirection=south;gradientColor=#66FFFF;" parent="1" vertex="1">
          <mxGeometry x="-472.95000000000005" y="510" width="82.95" height="20" as="geometry" />
        </mxCell>
        <mxCell id="RyBurUhnKJ1ASNkBhI7w-184" value="&lt;span style=&quot;font-size: 9px;&quot;&gt;_PaginationPartial&lt;/span&gt;" style="rounded=0;whiteSpace=wrap;html=1;fillColor=#66FFFF;strokeColor=default;gradientDirection=south;gradientColor=#66FFFF;" parent="1" vertex="1">
          <mxGeometry x="-472.95" y="442" width="82.95" height="20" as="geometry" />
        </mxCell>
        <mxCell id="RyBurUhnKJ1ASNkBhI7w-185" value="&lt;font style=&quot;font-size: 9px;&quot;&gt;_CheepPartial&lt;/font&gt;" style="rounded=0;whiteSpace=wrap;html=1;fillColor=#66FFFF;strokeColor=default;gradientDirection=south;gradientColor=#66FFFF;" parent="1" vertex="1">
          <mxGeometry x="-472.95" y="472" width="82.95" height="28" as="geometry" />
        </mxCell>
        <mxCell id="RyBurUhnKJ1ASNkBhI7w-193" style="edgeStyle=orthogonalEdgeStyle;rounded=0;orthogonalLoop=1;jettySize=auto;html=1;exitX=0;exitY=0.5;exitDx=0;exitDy=0;endSize=4;fillColor=#f8cecc;strokeColor=#b85450;" parent="1" source="RyBurUhnKJ1ASNkBhI7w-180" target="RyBurUhnKJ1ASNkBhI7w-182" edge="1">
          <mxGeometry relative="1" as="geometry">
            <Array as="points">
              <mxPoint x="-370" y="398" />
              <mxPoint x="-370" y="422" />
            </Array>
          </mxGeometry>
        </mxCell>
        <mxCell id="RyBurUhnKJ1ASNkBhI7w-195" style="edgeStyle=orthogonalEdgeStyle;rounded=0;orthogonalLoop=1;jettySize=auto;html=1;exitX=0;exitY=0.5;exitDx=0;exitDy=0;entryX=1;entryY=0.5;entryDx=0;entryDy=0;endSize=4;fillColor=#f8cecc;strokeColor=#b85450;" parent="1" source="RyBurUhnKJ1ASNkBhI7w-180" target="RyBurUhnKJ1ASNkBhI7w-184" edge="1">
          <mxGeometry relative="1" as="geometry">
            <Array as="points">
              <mxPoint x="-370" y="398" />
              <mxPoint x="-370" y="452" />
            </Array>
          </mxGeometry>
        </mxCell>
        <mxCell id="RyBurUhnKJ1ASNkBhI7w-203" style="edgeStyle=orthogonalEdgeStyle;rounded=0;orthogonalLoop=1;jettySize=auto;html=1;exitX=0;exitY=0.5;exitDx=0;exitDy=0;endSize=4;fillColor=#f8cecc;strokeColor=#b85450;entryX=1;entryY=0.836;entryDx=0;entryDy=0;entryPerimeter=0;" parent="1" source="RyBurUhnKJ1ASNkBhI7w-177" target="RyBurUhnKJ1ASNkBhI7w-185" edge="1">
          <mxGeometry relative="1" as="geometry">
            <Array as="points">
              <mxPoint x="-370" y="520" />
              <mxPoint x="-370" y="495" />
            </Array>
          </mxGeometry>
        </mxCell>
        <mxCell id="RyBurUhnKJ1ASNkBhI7w-207" style="edgeStyle=orthogonalEdgeStyle;rounded=0;orthogonalLoop=1;jettySize=auto;html=1;exitX=0;exitY=0.5;exitDx=0;exitDy=0;endSize=4;fillColor=#f8cecc;strokeColor=#b85450;entryX=1;entryY=0.5;entryDx=0;entryDy=0;" parent="1" source="RyBurUhnKJ1ASNkBhI7w-179" target="RyBurUhnKJ1ASNkBhI7w-185" edge="1">
          <mxGeometry relative="1" as="geometry">
            <Array as="points">
              <mxPoint x="-360" y="486" />
            </Array>
          </mxGeometry>
        </mxCell>
        <mxCell id="RyBurUhnKJ1ASNkBhI7w-208" style="edgeStyle=orthogonalEdgeStyle;rounded=0;orthogonalLoop=1;jettySize=auto;html=1;exitX=0;exitY=0.5;exitDx=0;exitDy=0;entryX=1;entryY=0.5;entryDx=0;entryDy=0;endSize=4;fillColor=#f8cecc;strokeColor=#b85450;" parent="1" source="RyBurUhnKJ1ASNkBhI7w-175" target="RyBurUhnKJ1ASNkBhI7w-184" edge="1">
          <mxGeometry relative="1" as="geometry">
            <Array as="points">
              <mxPoint x="-370" y="440" />
              <mxPoint x="-370" y="452" />
            </Array>
          </mxGeometry>
        </mxCell>
        <mxCell id="RyBurUhnKJ1ASNkBhI7w-209" style="edgeStyle=orthogonalEdgeStyle;rounded=0;orthogonalLoop=1;jettySize=auto;html=1;exitX=0;exitY=0.5;exitDx=0;exitDy=0;entryX=1;entryY=0.153;entryDx=0;entryDy=0;endSize=4;fillColor=#f8cecc;strokeColor=#b85450;entryPerimeter=0;" parent="1" source="RyBurUhnKJ1ASNkBhI7w-175" target="RyBurUhnKJ1ASNkBhI7w-185" edge="1">
          <mxGeometry relative="1" as="geometry">
            <Array as="points">
              <mxPoint x="-370" y="440" />
              <mxPoint x="-370" y="476" />
            </Array>
          </mxGeometry>
        </mxCell>
        <mxCell id="RyBurUhnKJ1ASNkBhI7w-211" style="edgeStyle=orthogonalEdgeStyle;rounded=0;orthogonalLoop=1;jettySize=auto;html=1;exitX=0;exitY=0.5;exitDx=0;exitDy=0;entryX=1;entryY=0.5;entryDx=0;entryDy=0;fillColor=#f8cecc;strokeColor=#b85450;endSize=4;" parent="1" source="RyBurUhnKJ1ASNkBhI7w-177" target="RyBurUhnKJ1ASNkBhI7w-183" edge="1">
          <mxGeometry relative="1" as="geometry">
            <Array as="points">
              <mxPoint x="-360" y="520" />
              <mxPoint x="-360" y="520" />
            </Array>
          </mxGeometry>
        </mxCell>
        <mxCell id="RyBurUhnKJ1ASNkBhI7w-212" value="JavaScript" style="rounded=0;whiteSpace=wrap;html=1;fillColor=#eeeeee;strokeColor=#36393d;" parent="1" vertex="1">
          <mxGeometry x="-472.95" y="585" width="80.95" height="31.62" as="geometry" />
        </mxCell>
        <mxCell id="RyBurUhnKJ1ASNkBhI7w-213" value="CSS" style="rounded=0;whiteSpace=wrap;html=1;fillColor=#eeeeee;strokeColor=#36393d;" parent="1" vertex="1">
          <mxGeometry x="-385.47" y="585" width="80.95" height="31.62" as="geometry" />
        </mxCell>
        <mxCell id="RyBurUhnKJ1ASNkBhI7w-214" value="Assets" style="rounded=0;whiteSpace=wrap;html=1;fillColor=#eeeeee;strokeColor=#36393d;" parent="1" vertex="1">
          <mxGeometry x="-300.00000000000006" y="585" width="80.95" height="31.62" as="geometry" />
        </mxCell>
        <mxCell id="RKfs2ECPPXJ6RIF6PNYo-1" value="&lt;font style=&quot;font-size: 11px;&quot;&gt;TestInferstructureDbInilitizer&lt;/font&gt;" style="rounded=0;whiteSpace=wrap;html=1;fillColor=#fad7ac;strokeColor=#b46504;" parent="1" vertex="1">
          <mxGeometry x="40.01" y="608.12" width="142.1" height="40" as="geometry" />
        </mxCell>
        <mxCell id="RKfs2ECPPXJ6RIF6PNYo-10" style="edgeStyle=orthogonalEdgeStyle;rounded=0;orthogonalLoop=1;jettySize=auto;html=1;exitX=0.5;exitY=0;exitDx=0;exitDy=0;fillColor=#f8cecc;strokeColor=#b85450;" parent="1" source="RKfs2ECPPXJ6RIF6PNYo-2" target="RKfs2ECPPXJ6RIF6PNYo-1" edge="1">
          <mxGeometry relative="1" as="geometry">
            <Array as="points">
              <mxPoint x="191" y="670" />
              <mxPoint x="111" y="670" />
            </Array>
          </mxGeometry>
        </mxCell>
        <mxCell id="RKfs2ECPPXJ6RIF6PNYo-2" value="&lt;font style=&quot;font-size: 10px;&quot;&gt;AuthorRepositoryTests&lt;/font&gt;" style="rounded=0;whiteSpace=wrap;html=1;fillColor=#fad7ac;strokeColor=#b46504;" parent="1" vertex="1">
          <mxGeometry x="135" y="680" width="112.1" height="40" as="geometry" />
        </mxCell>
        <mxCell id="RKfs2ECPPXJ6RIF6PNYo-11" style="edgeStyle=orthogonalEdgeStyle;rounded=0;orthogonalLoop=1;jettySize=auto;html=1;entryX=0.503;entryY=1;entryDx=0;entryDy=0;entryPerimeter=0;fillColor=#f8cecc;strokeColor=#b85450;dashed=1;" parent="1" source="RyBurUhnKJ1ASNkBhI7w-20" target="RyBurUhnKJ1ASNkBhI7w-22" edge="1">
          <mxGeometry relative="1" as="geometry">
            <Array as="points">
              <mxPoint x="51" y="570" />
              <mxPoint x="51" y="570" />
            </Array>
          </mxGeometry>
        </mxCell>
        <mxCell id="RKfs2ECPPXJ6RIF6PNYo-24" value="&lt;font style=&quot;font-size: 9px;&quot;&gt;FormatterTest&lt;/font&gt;" style="rounded=0;whiteSpace=wrap;html=1;fillColor=#fad7ac;strokeColor=#b46504;" parent="1" vertex="1">
          <mxGeometry x="-215" y="667.12" width="85" height="27" as="geometry" />
        </mxCell>
        <mxCell id="RKfs2ECPPXJ6RIF6PNYo-31" value="&lt;font style=&quot;font-size: 9px;&quot;&gt;E2ETests&lt;/font&gt;" style="rounded=0;whiteSpace=wrap;html=1;fillColor=#fad7ac;strokeColor=#b46504;" parent="1" vertex="1">
          <mxGeometry x="-180" y="897" width="80" height="30.94" as="geometry" />
        </mxCell>
        <mxCell id="RKfs2ECPPXJ6RIF6PNYo-33" style="edgeStyle=orthogonalEdgeStyle;rounded=0;orthogonalLoop=1;jettySize=auto;html=1;fillColor=#f8cecc;strokeColor=#b85450;dashed=1;" parent="1" source="RyBurUhnKJ1ASNkBhI7w-21" edge="1">
          <mxGeometry relative="1" as="geometry">
            <mxPoint x="-349" y="630" as="targetPoint" />
            <Array as="points">
              <mxPoint x="-90" y="650" />
              <mxPoint x="-349" y="650" />
            </Array>
          </mxGeometry>
        </mxCell>
        <mxCell id="RKfs2ECPPXJ6RIF6PNYo-37" value="" style="endArrow=none;dashed=1;html=1;rounded=0;exitX=0.242;exitY=0.008;exitDx=0;exitDy=0;exitPerimeter=0;fillColor=#f8cecc;strokeColor=#b85450;" parent="1" edge="1">
          <mxGeometry width="50" height="50" relative="1" as="geometry">
            <mxPoint x="-253.13" y="659.2800000000002" as="sourcePoint" />
            <mxPoint x="-253" y="648" as="targetPoint" />
          </mxGeometry>
        </mxCell>
        <mxCell id="RKfs2ECPPXJ6RIF6PNYo-41" value=".cshtml.cs" style="rounded=0;whiteSpace=wrap;html=1;fillColor=#fad7ac;strokeColor=default;gradientDirection=south;gradientColor=#66FFFF;" parent="1" vertex="1">
          <mxGeometry x="-518.95" y="896.47" width="100" height="38.79" as="geometry" />
        </mxCell>
        <mxCell id="RKfs2ECPPXJ6RIF6PNYo-43" value=".cshtml" style="rounded=0;whiteSpace=wrap;html=1;fillColor=#66FFFF;strokeColor=default;gradientDirection=south;gradientColor=#66FFFF;" parent="1" vertex="1">
          <mxGeometry x="-517.9" y="943" width="100" height="38.79" as="geometry" />
        </mxCell>
        <mxCell id="RKfs2ECPPXJ6RIF6PNYo-45" value="" style="endArrow=classic;html=1;rounded=0;fillColor=#f8cecc;strokeColor=#b85450;dashed=1;strokeWidth=2;movable=1;resizable=1;rotatable=1;deletable=1;editable=1;locked=0;connectable=1;" parent="1" edge="1">
          <mxGeometry width="50" height="50" relative="1" as="geometry">
            <mxPoint x="-384.73999999999995" y="1018" as="sourcePoint" />
            <mxPoint x="-274.73999999999995" y="1018" as="targetPoint" />
          </mxGeometry>
        </mxCell>
        <mxCell id="RKfs2ECPPXJ6RIF6PNYo-53" value="Implicite Use" style="edgeLabel;html=1;align=center;verticalAlign=middle;resizable=0;points=[];" parent="RKfs2ECPPXJ6RIF6PNYo-45" vertex="1" connectable="0">
          <mxGeometry x="-0.294" y="1" relative="1" as="geometry">
            <mxPoint x="15" y="-9" as="offset" />
          </mxGeometry>
        </mxCell>
        <mxCell id="RKfs2ECPPXJ6RIF6PNYo-46" value="" style="endArrow=classic;html=1;rounded=0;fillColor=#f8cecc;strokeColor=#b85450;strokeWidth=2;movable=1;resizable=1;rotatable=1;deletable=1;editable=1;locked=0;connectable=1;" parent="1" edge="1">
          <mxGeometry width="50" height="50" relative="1" as="geometry">
            <mxPoint x="-385.73999999999995" y="983" as="sourcePoint" />
            <mxPoint x="-275.73999999999995" y="983" as="targetPoint" />
          </mxGeometry>
        </mxCell>
        <mxCell id="RKfs2ECPPXJ6RIF6PNYo-50" value="Use" style="edgeLabel;html=1;align=center;verticalAlign=middle;resizable=0;points=[];" parent="RKfs2ECPPXJ6RIF6PNYo-46" vertex="1" connectable="0">
          <mxGeometry x="-0.0307" y="-1" relative="1" as="geometry">
            <mxPoint x="1" y="-13" as="offset" />
          </mxGeometry>
        </mxCell>
        <mxCell id="RKfs2ECPPXJ6RIF6PNYo-48" value="" style="endArrow=block;html=1;rounded=0;fillColor=#f8cecc;strokeColor=#b85450;strokeWidth=2;movable=1;resizable=1;rotatable=1;deletable=1;editable=1;locked=0;connectable=1;endFill=0;" parent="1" edge="1">
          <mxGeometry width="50" height="50" relative="1" as="geometry">
            <mxPoint x="-384.73999999999995" y="948" as="sourcePoint" />
            <mxPoint x="-274.73999999999995" y="948" as="targetPoint" />
          </mxGeometry>
        </mxCell>
        <mxCell id="RKfs2ECPPXJ6RIF6PNYo-49" value="Inheritence" style="edgeLabel;html=1;align=center;verticalAlign=middle;resizable=0;points=[];" parent="RKfs2ECPPXJ6RIF6PNYo-48" vertex="1" connectable="0">
          <mxGeometry x="-0.2188" y="1" relative="1" as="geometry">
            <mxPoint x="11" y="-13" as="offset" />
          </mxGeometry>
        </mxCell>
        <mxCell id="q4QHtlRdLI_Kb6RCOeZz-1" value="Class" style="rounded=0;whiteSpace=wrap;html=1;fillColor=#fad7ac;strokeColor=#b46504;" parent="1" vertex="1">
          <mxGeometry x="-521.05" y="800" width="102.1" height="40" as="geometry" />
        </mxCell>
        <mxCell id="7" style="edgeStyle=orthogonalEdgeStyle;rounded=0;orthogonalLoop=1;jettySize=auto;html=1;exitX=0;exitY=0.25;exitDx=0;exitDy=0;entryX=0.89;entryY=0.008;entryDx=0;entryDy=0;fillColor=#f8cecc;strokeColor=#b85450;entryPerimeter=0;" parent="1" source="RyBurUhnKJ1ASNkBhI7w-101" target="RyBurUhnKJ1ASNkBhI7w-97" edge="1">
          <mxGeometry relative="1" as="geometry">
            <Array as="points">
              <mxPoint x="420" y="350" />
              <mxPoint x="420" y="370" />
            </Array>
            <mxPoint x="391.0500000000002" y="380" as="sourcePoint" />
            <mxPoint x="460" y="360" as="targetPoint" />
          </mxGeometry>
        </mxCell>
        <mxCell id="13" style="edgeStyle=orthogonalEdgeStyle;html=1;exitX=1;exitY=0;exitDx=0;exitDy=0;entryX=0.633;entryY=0.969;entryDx=0;entryDy=0;entryPerimeter=0;fontColor=default;endArrow=none;endFill=0;fillColor=#fad9d5;strokeColor=#ae4132;" parent="1" source="10" target="RyBurUhnKJ1ASNkBhI7w-98" edge="1">
          <mxGeometry relative="1" as="geometry" />
        </mxCell>
        <mxCell id="14" style="edgeStyle=orthogonalEdgeStyle;html=1;exitX=0;exitY=0;exitDx=0;exitDy=0;entryX=0.338;entryY=1.012;entryDx=0;entryDy=0;entryPerimeter=0;fontColor=default;endArrow=none;endFill=0;fillColor=#fad9d5;strokeColor=#ae4132;" parent="1" source="10" target="RyBurUhnKJ1ASNkBhI7w-98" edge="1">
          <mxGeometry relative="1" as="geometry" />
        </mxCell>
        <mxCell id="16" value="0..N" style="edgeLabel;html=1;align=center;verticalAlign=middle;resizable=0;points=[];labelBackgroundColor=none;fontSize=10;" parent="1" vertex="1" connectable="0">
          <mxGeometry x="438.5875267082588" y="468.7915142654688" as="geometry">
            <mxPoint x="-32" y="39" as="offset" />
          </mxGeometry>
        </mxCell>
        <mxCell id="17" value="0..N" style="edgeLabel;html=1;align=center;verticalAlign=middle;resizable=0;points=[];labelBackgroundColor=none;fontSize=10;" parent="1" vertex="1" connectable="0">
          <mxGeometry x="383.0475267082588" y="469.00151426546876" as="geometry">
            <mxPoint x="-32" y="39" as="offset" />
          </mxGeometry>
        </mxCell>
        <mxCell id="22" style="edgeStyle=orthogonalEdgeStyle;html=1;exitX=0.5;exitY=0;exitDx=0;exitDy=0;entryX=0.823;entryY=0.985;entryDx=0;entryDy=0;entryPerimeter=0;fontColor=default;endArrow=none;endFill=0;fillColor=#fad9d5;strokeColor=#ae4132;" parent="1" source="19" target="RyBurUhnKJ1ASNkBhI7w-97" edge="1">
          <mxGeometry relative="1" as="geometry" />
        </mxCell>
        <mxCell id="23" style="edgeStyle=orthogonalEdgeStyle;html=1;exitX=0.5;exitY=1;exitDx=0;exitDy=0;entryX=0.821;entryY=0;entryDx=0;entryDy=0;entryPerimeter=0;fontColor=default;endArrow=none;endFill=0;fillColor=#fad9d5;strokeColor=#ae4132;" parent="1" source="19" target="RyBurUhnKJ1ASNkBhI7w-98" edge="1">
          <mxGeometry relative="1" as="geometry" />
        </mxCell>
        <mxCell id="24" value="0..N" style="edgeLabel;html=1;align=center;verticalAlign=middle;resizable=0;points=[];labelBackgroundColor=none;" parent="1" vertex="1" connectable="0">
          <mxGeometry x="384.02768935310155" y="424.543632072317" as="geometry">
            <mxPoint x="46" y="-15" as="offset" />
          </mxGeometry>
        </mxCell>
        <mxCell id="25" value="0..N" style="edgeLabel;html=1;align=center;verticalAlign=middle;resizable=0;points=[];labelBackgroundColor=none;" parent="1" vertex="1" connectable="0">
          <mxGeometry x="384.02768935310155" y="424.543632072317" as="geometry">
            <mxPoint x="46" y="36" as="offset" />
          </mxGeometry>
        </mxCell>
        <mxCell id="28" style="edgeStyle=orthogonalEdgeStyle;html=1;exitX=0.5;exitY=0;exitDx=0;exitDy=0;entryX=0.083;entryY=0.001;entryDx=0;entryDy=0;entryPerimeter=0;fontColor=default;endArrow=none;endFill=0;curved=1;fillColor=#fad9d5;strokeColor=#ae4132;" parent="1" source="RyBurUhnKJ1ASNkBhI7w-97" target="RyBurUhnKJ1ASNkBhI7w-97" edge="1">
          <mxGeometry relative="1" as="geometry">
            <Array as="points">
              <mxPoint x="360" y="340" />
            </Array>
          </mxGeometry>
        </mxCell>
        <mxCell id="29" value="0..1" style="edgeLabel;html=1;align=center;verticalAlign=middle;resizable=0;points=[];fontColor=default;labelBackgroundColor=none;" parent="1" vertex="1" connectable="0">
          <mxGeometry x="381.02751641703463" y="354.998934619977" as="geometry" />
        </mxCell>
        <mxCell id="30" value="0..1" style="edgeLabel;html=1;align=center;verticalAlign=middle;resizable=0;points=[];fontColor=default;labelBackgroundColor=none;" parent="1" vertex="1" connectable="0">
          <mxGeometry x="386.02751641703463" y="361.998934619977" as="geometry">
            <mxPoint x="-50" y="-6" as="offset" />
          </mxGeometry>
        </mxCell>
      </root>
    </mxGraphModel>
  </diagram>
</mxfile>
